<?xml version="1.0" encoding="utf-8"?>
<!-- Generator: Adobe Illustrator 16.0.0, SVG Export Plug-In . SVG Version: 6.00 Build 0)  -->
<!DOCTYPE svg PUBLIC "-//W3C//DTD SVG 1.1//EN" "http://www.w3.org/Graphics/SVG/1.1/DTD/svg11.dtd">
<svg version="1.1" id="Layer_1" xmlns="http://www.w3.org/2000/svg" xmlns:xlink="http://www.w3.org/1999/xlink" x="0px" y="0px"
	 width="2807px" height="1604px" viewBox="0 0 2807 1604" enable-background="new 0 0 2807 1604" xml:space="preserve">
<g opacity="0.1">
	<g>
		<defs>
			<rect id="SVGID_1_" width="2806.243" height="1603.567"/>
		</defs>
		<use xlink:href="#SVGID_1_"  overflow="visible" fill="#FFFFFF"/>
		<clipPath id="SVGID_2_">
			<use xlink:href="#SVGID_1_"  overflow="visible"/>
		</clipPath>
		<g clip-path="url(#SVGID_2_)">
			<g>
				<path fill="#B3B3B3" d="M3018.924,1813.771H-212.682V-210.203h3231.605V1813.771z M-208.505,1809.596h3223.253V-206.027
					H-208.505V1809.596z"/>
			</g>
			<g>
				<rect x="-210.593" y="1708.606" fill="#B3B3B3" width="3227.429" height="4.176"/>
			</g>
			<g>
				<rect x="-210.593" y="1607.613" fill="#B3B3B3" width="3227.429" height="4.177"/>
			</g>
			<g>
				<rect x="-210.593" y="1506.624" fill="#B3B3B3" width="3227.429" height="4.176"/>
			</g>
			<g>
				<rect x="-210.593" y="1405.635" fill="#B3B3B3" width="3227.429" height="4.176"/>
			</g>
			<g>
				<rect x="-210.593" y="1304.645" fill="#B3B3B3" width="3227.429" height="4.176"/>
			</g>
			<g>
				<rect x="-210.593" y="1203.655" fill="#B3B3B3" width="3227.429" height="4.176"/>
			</g>
			<g>
				<rect x="-210.593" y="1102.665" fill="#B3B3B3" width="3227.429" height="4.177"/>
			</g>
			<g>
				<rect x="-210.593" y="1001.676" fill="#B3B3B3" width="3227.429" height="4.176"/>
			</g>
			<g>
				<rect x="-210.593" y="900.686" fill="#B3B3B3" width="3227.429" height="4.177"/>
			</g>
			<g>
				<rect x="-210.593" y="799.696" fill="#B3B3B3" width="3227.429" height="4.176"/>
			</g>
			<g>
				<rect x="-210.593" y="698.707" fill="#B3B3B3" width="3227.429" height="4.176"/>
			</g>
			<g>
				<rect x="-210.593" y="597.715" fill="#B3B3B3" width="3227.429" height="4.176"/>
			</g>
			<g>
				<rect x="-210.593" y="496.725" fill="#B3B3B3" width="3227.429" height="4.176"/>
			</g>
			<g>
				<rect x="-210.593" y="395.735" fill="#B3B3B3" width="3227.429" height="4.176"/>
			</g>
			<g>
				<rect x="-210.593" y="294.746" fill="#B3B3B3" width="3227.429" height="4.176"/>
			</g>
			<g>
				<rect x="-210.593" y="193.756" fill="#B3B3B3" width="3227.429" height="4.176"/>
			</g>
			<g>
				<rect x="-210.593" y="92.767" fill="#B3B3B3" width="3227.429" height="4.176"/>
			</g>
			<g>
				<rect x="-210.593" y="-8.223" fill="#B3B3B3" width="3227.429" height="4.176"/>
			</g>
			<g>
				<rect x="-210.593" y="-109.213" fill="#B3B3B3" width="3227.429" height="4.176"/>
			</g>
			<g>
				<rect x="2916.948" y="-208.115" fill="#B3B3B3" width="4.176" height="2019.798"/>
			</g>
			<g>
				<rect x="2819.147" y="-208.115" fill="#B3B3B3" width="4.176" height="2019.798"/>
			</g>
			<g>
				<rect x="2721.344" y="-208.115" fill="#B3B3B3" width="4.176" height="2019.798"/>
			</g>
			<g>
				<rect x="2623.544" y="-208.115" fill="#B3B3B3" width="4.176" height="2019.798"/>
			</g>
			<g>
				<rect x="2525.742" y="-208.115" fill="#B3B3B3" width="4.177" height="2019.798"/>
			</g>
			<g>
				<rect x="2427.942" y="-208.115" fill="#B3B3B3" width="4.176" height="2019.798"/>
			</g>
			<g>
				<rect x="2330.142" y="-208.115" fill="#B3B3B3" width="4.176" height="2019.798"/>
			</g>
			<g>
				<rect x="2232.341" y="-208.115" fill="#B3B3B3" width="4.177" height="2019.798"/>
			</g>
			<g>
				<rect x="2134.541" y="-208.115" fill="#B3B3B3" width="4.176" height="2019.798"/>
			</g>
			<g>
				<rect x="2036.74" y="-208.115" fill="#B3B3B3" width="4.176" height="2019.798"/>
			</g>
			<g>
				<rect x="1938.939" y="-208.115" fill="#B3B3B3" width="4.176" height="2019.798"/>
			</g>
			<g>
				<rect x="1841.136" y="-208.115" fill="#B3B3B3" width="4.177" height="2019.798"/>
			</g>
			<g>
				<rect x="1743.336" y="-208.115" fill="#B3B3B3" width="4.176" height="2019.798"/>
			</g>
			<g>
				<rect x="1645.535" y="-208.115" fill="#B3B3B3" width="4.176" height="2019.798"/>
			</g>
			<g>
				<rect x="1547.734" y="-208.115" fill="#B3B3B3" width="4.176" height="2019.798"/>
			</g>
			<g>
				<rect x="1449.934" y="-208.115" fill="#B3B3B3" width="4.177" height="2019.798"/>
			</g>
			<g>
				<rect x="1352.133" y="-208.115" fill="#B3B3B3" width="4.176" height="2019.798"/>
			</g>
			<g>
				<rect x="1254.333" y="-208.115" fill="#B3B3B3" width="4.176" height="2019.798"/>
			</g>
			<g>
				<rect x="1156.532" y="-208.115" fill="#B3B3B3" width="4.176" height="2019.798"/>
			</g>
			<g>
				<rect x="1058.731" y="-208.115" fill="#B3B3B3" width="4.176" height="2019.798"/>
			</g>
			<g>
				<rect x="960.928" y="-208.115" fill="#B3B3B3" width="4.176" height="2019.798"/>
			</g>
			<g>
				<rect x="863.127" y="-208.115" fill="#B3B3B3" width="4.176" height="2019.798"/>
			</g>
			<g>
				<rect x="765.327" y="-208.115" fill="#B3B3B3" width="4.176" height="2019.798"/>
			</g>
			<g>
				<rect x="667.527" y="-208.115" fill="#B3B3B3" width="4.176" height="2019.798"/>
			</g>
			<g>
				<rect x="569.726" y="-208.115" fill="#B3B3B3" width="4.176" height="2019.798"/>
			</g>
			<g>
				<rect x="471.925" y="-208.115" fill="#B3B3B3" width="4.176" height="2019.798"/>
			</g>
			<g>
				<rect x="374.125" y="-208.115" fill="#B3B3B3" width="4.176" height="2019.798"/>
			</g>
			<g>
				<rect x="276.324" y="-208.115" fill="#B3B3B3" width="4.176" height="2019.798"/>
			</g>
			<g>
				<rect x="178.524" y="-208.115" fill="#B3B3B3" width="4.176" height="2019.798"/>
			</g>
			<g>
				<rect x="80.72" y="-208.115" fill="#B3B3B3" width="4.176" height="2019.798"/>
			</g>
			<g>
				<rect x="-17.08" y="-208.115" fill="#B3B3B3" width="4.176" height="2019.798"/>
			</g>
			<g>
				<rect x="-114.881" y="-208.115" fill="#B3B3B3" width="4.176" height="2019.798"/>
			</g>
		</g>
	</g>
</g>
</svg>
